<svg xmlns="http://www.w3.org/2000/svg"
     id="cloud"
     viewBox="0 0 769 769"
     width="500" height="500"
     shape-rendering="geometricPrecision"
     text-rendering="geometricPrecision"
     version="1.1">

  <style id="drift">
    @keyframes cloud1_animation_group__to {
      0%, to   { transform: translate(-34.75px, -34.5px); }
      60%      { transform: translate(-4.75px, -34.5px); }
    }
    @keyframes cloud2_animation_group__to {
      0%, to   { transform: translate(0, 0); }
      34%      { transform: translate(-20px, 0); }
    }
    #cloud1_animation_group { animation: cloud1_animation_group__to 10000ms linear infinite forwards; }
    #cloud2_animation_group { animation: cloud2_animation_group__to 10000ms linear infinite forwards; }
  </style>

  <!-- red background -->
  <g id="background" transform="matrix(4 0 0 4 -807.766 -2318.526)">
    <path id="square"
          d="M394.19 676.01v72.19c0 11.03-8.32 21.11-19.18 23.18-1.61.31-3.27.48-4.9.48-47.97.03-95.93.02-143.9.02-11.76 0-22.02-9.02-23.56-20.72a23.27 23.27 0 01-.23-3.12c-.01-48.09-.01-96.18-.01-144.26 0-11.03 8.32-21.12 19.18-23.18 1.61-.31 3.27-.48 4.9-.48 48.01-.02 96.02-.02 144.02-.02 11.03 0 21.13 8.33 23.18 19.18.3 1.61.48 3.27.48 4.9.03 23.94.02 47.89.02 71.83z"
          fill="#E42B29" stroke="none" stroke-width="1"/>
  </g>

  <g id="clouds" transform="matrix(4 0 0 4 -807.792 -2303.225)">

    <!-- drifting big cloud -->
    <g id="cloud1_animation_group" transform="translate(-34.75 -34.5)">
      <path id="cloud1"
            d="M390.5 707.96c-.71 2.69-1.18 5.48-2.17 8.07-4.24 11.07-14.77 18.19-26.6 18.19-32.13 0-64.27-.01-96.4.01-7.36.01-13.85-2.11-18.8-7.75-6.05-6.89-7.65-14.87-4.5-23.43 3.15-8.56 9.55-13.53 18.63-14.91.88-.13 1.77-.22 2.65-.33.5-2.63.8-5.31 1.54-7.86 4.42-15.15 20.06-23.79 35.2-19.46 1.63.47 2.25-.01 3.03-1.34 7.31-12.41 20.43-18.51 34.02-16.84 14.77 1.82 26.36 12.69 29.52 27.07.46 2.09.58 4.26.72 6.41.07.96.26 1.38 1.32 1.7 12.32 3.69 19.62 11.81 21.52 24.63.04.28.21.54.32.8v5.04z"
            fill="#FFF"
            stroke="#000"
            stroke-width="6"/>
    </g>

    <!-- drifting smaller cloud (white only, no red behind) -->
    <g id="cloud2_animation_group">
      <path id="cloud2"
            d="M390.5 707.96c-.71 2.69-1.18 5.48-2.17 8.07-4.24 11.07-14.77 18.19-26.6 18.19-32.13 0-64.27-.01-96.4.01-7.36.01-13.85-2.11-18.8-7.75-6.05-6.89-7.65-14.87-4.5-23.43 3.15-8.56 9.55-13.53 18.63-14.91.88-.13 1.77-.22 2.65-.33.5-2.63.8-5.31 1.54-7.86 4.42-15.15 20.06-23.79 35.2-19.46 1.63.47 2.25-.01 3.03-1.34 7.31-12.41 20.43-18.51 34.02-16.84 14.77 1.82 26.36 12.69 29.52 27.07.46 2.09.58 4.26.72 6.41.07.96.26 1.38 1.32 1.7 12.32 3.69 19.62 11.81 21.52 24.63.04.28.21.54.32.8v5.04z"
            fill="#FFF"
            stroke="#000"
            stroke-width="6"/>
    </g>

  </g>
</svg>
