<svg xmlns="http://www.w3.org/2000/svg" id="music" viewBox="0 0 769 769" width="500" height="500" shape-rendering="geometricPrecision" text-rendering="geometricPrecision" version="1.1">
  <defs>
    <!-- Gradients for highlights -->
    <linearGradient id="gradBlue" x1="0%" y1="0%" x2="100%" y2="100%">
      <stop offset="0%" style="stop-color:#00cfff;stop-opacity:1"/>
      <stop offset="100%" style="stop-color:#007acc;stop-opacity:1"/>
    </linearGradient>
    <linearGradient id="gradGreen" x1="0%" y1="0%" x2="100%" y2="100%">
      <stop offset="0%" style="stop-color:#5cf596;stop-opacity:1"/>
      <stop offset="100%" style="stop-color:#3dba66;stop-opacity:1"/>
    </linearGradient>
    <linearGradient id="gradYellow" x1="0%" y1="0%" x2="100%" y2="100%">
      <stop offset="0%" style="stop-color:#ffed7b;stop-opacity:1"/>
      <stop offset="100%" style="stop-color:#e4b400;stop-opacity:1"/>
    </linearGradient>
    <linearGradient id="gradOrange" x1="0%" y1="0%" x2="100%" y2="100%">
      <stop offset="0%" style="stop-color:#ffbb73;stop-opacity:1"/>
      <stop offset="100%" style="stop-color:#d97904;stop-opacity:1"/>
    </linearGradient>
    <linearGradient id="gradPurple" x1="0%" y1="0%" x2="100%" y2="100%">
      <stop offset="0%" style="stop-color:#d6a3ff;stop-opacity:1"/>
      <stop offset="100%" style="stop-color:#8e44ad;stop-opacity:1"/>
    </linearGradient>
  </defs>

  <style id="music_sheet">
    @keyframes music_scale_animation__to{0%{transform:translate(384.5px,381.686597px)}53.333333%{transform:translate(384.499988px,381.686597px)}80%,to{transform:translate(-391.450012px,381.686597px)}}
    @keyframes music_scale_group_c_o{0%,80%,to{opacity:0}3.333333%,53.333333%{opacity:1}}
    @keyframes music_note1_animation__to{0%,3.333333%{transform:translate(1184.185608px,170.944336px)}53.333333%,to{transform:translate(-375.814392px,170.944336px)}}
    @keyframes music_note2_animation__to{0%,3.333333%{transform:translate(1484.185672px,240.944358px)}53.333333%,to{transform:translate(-85.814328px,240.944358px)}}
    @keyframes music_note3_animation__to{0%,3.333333%{transform:translate(355.236704px,413.795165px)}53.333333%,to{transform:translate(-1204.763296px,413.795165px)}}
    @keyframes music_note4_animation__to{0%,3.333333%{transform:translate(1915.236704px,413.796324px)}53.333333%,to{transform:translate(355.236704px,413.796324px)}}
    @keyframes music_note5_animation__to{0%,3.333333%{transform:translate(927.667693px,294.367107px)}53.333333%,to{transform:translate(-632.332307px,294.367107px)}}
    #music_scale_animation{animation:music_scale_animation__to 15000ms linear infinite normal forwards}
    #music_scale_group{animation:music_scale_group_c_o 15000ms linear infinite normal forwards}
    #music_note1_animation{animation:music_note1_animation__to 15000ms linear infinite normal forwards}
    #music_note2_animation{animation:music_note2_animation__to 15000ms linear infinite normal forwards}
    #music_note3_animation{animation:music_note3_animation__to 15000ms linear infinite normal forwards}
    #music_note4_animation{animation:music_note4_animation__to 15000ms linear infinite normal forwards}
    #music_note5_animation{animation:music_note5_animation__to 15000ms linear infinite normal forwards}
  </style>

  <!-- Red background -->
  <path id="background" d="M392.49 676.01v72.19c0 11.03-8.32 21.11-19.18 23.18-1.61.31-3.27.48-4.9.48-47.97.03-95.93.02-143.9.02-11.76 0-22.02-9.02-23.56-20.72a23.27 23.27 0 01-.23-3.12c-.01-48.09-.01-96.18-.01-144.26 0-11.03 8.32-21.12 19.18-23.18 1.61-.31 3.27-.48 4.9-.48 48.01-.02 96.02-.02 144.02-.02 11.03 0 21.13 8.33 23.18 19.18.3 1.61.48 3.27.48 4.9.03 23.94.02 47.89.02 71.83z" transform="matrix(4 0 0 4 -801.294 -2320.4)" fill="#E42B29"/>

  <!-- Clipping path -->
  <clipPath id="clipBox">
    <path d="M392.49 676.01v72.19c0 11.03-8.32 21.11-19.18 23.18-1.61.31-3.27.48-4.9.48-47.97.03-95.93.02-143.9.02-11.76 0-22.02-9.02-23.56-20.72a23.27 23.27 0 01-.23-3.12c-.01-48.09-.01-96.18-.01-144.26 0-11.03 8.32-21.12 19.18-23.18 1.61-.31 3.27-.48 4.9-.48 48.01-.02 96.02-.02 144.02-.02 11.03 0 21.13 8.33 23.18 19.18.3 1.61.48 3.27.48 4.9.03 23.94.02 47.89.02 71.83z" transform="matrix(4 0 0 4 -801.294 -2320.4)"/>
  </clipPath>

  <g clip-path="url(#clipBox)">
    <g id="music_scale_animation" transform="translate(384.5 381.687)">
      <g id="music_scale_group" transform="matrix(4 0 0 4 -1183.966 -2696.457)" opacity="0" fill="#000" fill-rule="evenodd" stroke="#FFF" stroke-width=".133">
        <rect id="music_scale_line1" width="192.997" height="3.834" rx="0" ry="1.208" transform="translate(200.132 740.555)"/>
        <rect id="music_scale_line2" width="192.997" height="3.834" rx="0" ry="1.208" transform="translate(198.854 705.727)"/>
        <rect id="music_scale_line3" width="192.997" height="3.834" rx="0" ry="1.208" transform="translate(199.493 672.176)"/>
        <rect id="music_scale_line4" width="192.997" height="3.834" rx="0" ry="1.208" transform="translate(199.707 603.839)"/>
        <rect id="music_scale_line5" width="192.997" height="3.834" rx="0" ry="1.208" transform="translate(199.388 637.07)"/>
      </g>
    </g>
    <g id="music_note1_animation" transform="translate(1184.186 170.944)">
      <g transform="matrix(4 0 0 4 -1945.3 -2929.162)" stroke="black" stroke-width="6">
        <path d="M486.656 714.87c-7.75 1.41-14.16 5.05-18.58 11.74-2.17 3.29-3.22 6.94-2.64 10.88.87 5.86 4.58 9.48 9.98 11.17 9.17 2.87 17.71 1.18 25.25-4.71 5.17-4.03 9.41-11.27 4.6-22.14-8.96-7.67-14.42-7.70-18.61-6.94z" fill="url(#gradBlue)"/>
      </g>
    </g>
    <g id="music_note2_animation" transform="translate(1484.186 240.944)">
      <path d="M359.798 588.724c-7.75 1.41-14.16 5.05-18.58 11.74-2.17 3.29-3.22 6.94-2.64 10.88.87 5.86 4.58 9.48 9.98 11.17 9.17 2.87 17.71 1.18 25.25-4.71 5.17-4.03 9.41-11.27 4.6-22.14-8.96-7.67-14.42-7.70-18.61-6.94z" transform="matrix(4 0 0 4 -1437.868 -2424.575)" fill="url(#gradGreen)" stroke="black" stroke-width="6"/>
    </g>
    <g id="music_note3_animation" transform="translate(355.237 413.795)">
      <path d="M243.024 708.27c-4.18-1.82-8.36-1.85-12.55-1.09-7.75 1.41-14.16 5.05-18.58 11.74-2.17 3.29-3.22 6.94-2.64 10.88.87 5.86 4.58 9.48 9.98 11.17 9.17 2.87 17.71 1.18 25.25-4.71 5.17-4.03 7.81-9.35 7.75-16.1-.14-14.62-.01-29.24-.05-43.85-.01-2.75 1.13-4.73 3.43-6.09.78-.46 1.62-.85 2.48-1.12 14.65-4.62 29.3-9.21 43.96-13.8.71-.22 1.47-.39 2.21-.44 1.93-.14 2.99.79 3.17 2.72.03.35.04.71.04 1.07.01 11.64.01 23.28.01 34.92 0 .37-.04.75-.06 1.22-4.34-1.84-8.71-2.13-13.14-1.47-7.91 1.19-14.47 4.73-18.91 11.56-2.76 4.25-3.67 8.89-1.75 13.75 1.89 4.77 5.7 7.53 10.48 8.78 10.08 2.62 19.06.29 26.67-6.8 4-3.73 5.98-8.36 5.94-14.01-.13-20.54-.05-41.07-.05-61.61 0-4.41.02-8.82-.01-13.23-.03-3.79-2.55-6.99-6.3-7.56-1.74-.26-3.65-.04-5.38.38-3.08.74-6.08 1.8-9.12 2.73-13.86 4.24-27.71 8.49-41.57 12.7-6.63 2.01-11.42 8.95-11.35 15.41.19 17.16.07 34.32.08 51.48.01.37.01.77.01 1.37z" transform="matrix(4 0 0 4 -1051.622 -2732.85)" fill="url(#gradYellow)" stroke="black" stroke-width="6"/>
    </g>
    <g id="music_note4_animation" transform="translate(1915.237 413.796)">
      <path d="M243.024 708.27c-4.18-1.82-8.36-1.85-12.55-1.09-7.75 1.41-14.16 5.05-18.58 11.74-2.17 3.29-3.22 6.94-2.64 10.88.87 5.86 4.58 9.48 9.98 11.17 9.17 2.87 17.71 1.18 25.25-4.71 5.17-4.03 7.81-9.35 7.75-16.1-.14-14.62-.01-29.24-.05-43.85-.01-2.75 1.13-4.73 3.43-6.09.78-.46 1.62-.85 2.48-1.12 14.65-4.62 29.3-9.21 43.96-13.8.71-.22 1.47-.39 2.21-.44 1.93-.14 2.99.79 3.17 2.72.03.35.04.71.04 1.07.01 11.64.01 23.28.01 34.92 0 .37-.04.75-.06 1.22-4.34-1.84-8.71-2.13-13.14-1.47-7.91 1.19-14.47 4.73-18.91 11.56-2.76 4.25-3.67 8.89-1.75 13.75 1.89 4.77 5.7 7.53 10.48 8.78 10.08 2.62 19.06.29 26.67-6.8 4-3.73 5.98-8.36 5.94-14.01-.13-20.54-.05-41.07-.05-61.61 0-4.41.02-8.82-.01-13.23-.03-3.79-2.55-6.99-6.3-7.56-1.74-.26-3.65-.04-5.38.38-3.08.74-6.08 1.8-9.12 2.73-13.86 4.24-27.71 8.49-41.57 12.7-6.63 2.01-11.42 8.95-11.35 15.41.19 17.16.07 34.32.08 51.48.01.37.01.77.01 1.37z" transform="matrix(4 0 0 4 -1051.622 -2732.85)" fill="url(#gradOrange)" stroke="black" stroke-width="6"/>
    </g>
    <g id="music_note5_animation" transform="translate(927.668 294.367)">
      <path d="M359.684 689.748c-4.18-1.82-8.36-1.85-12.55-1.09-7.75 1.41-14.16 5.05-18.58 11.74-2.17 3.29-3.22 6.94-2.64 10.88.87 5.86 4.58 9.48 9.98 11.17 9.17 2.87 17.71 1.18 25.25-4.71 5.17-4.03 7.81-9.35 7.75-16.1-.14-14.62-.01-29.24-.05-43.85-.01-2.75 1.13-4.73 3.43-6.09.78-.46 1.62-.85 2.48-1.12 18.49-9.41 15.88-2.18 12.22-18.59-2.7-14.81 12.53-20.15-16.03-10.50-6.63 2.01-11.42 8.95-11.35 15.41.19 17.16.07 34.32.08 51.48.01.37.01.77.01 1.37z" transform="matrix(4 0 0 4 -1430.694 -2680.89)" fill="url(#gradPurple)" stroke="black" stroke-width="6"/>
    </g>
  </g>
</svg>
